<svg width="32" height="32" viewBox="0 0 32 32" fill="none" xmlns="http://www.w3.org/2000/svg">
<g clip-path="url(#clip0_508_15)">
<path fill-rule="evenodd" clip-rule="evenodd" d="M0 15.7057C0 23.4706 5.63957 29.9276 13.0154 31.2369V19.9565H9.11077V15.6185H13.0154V12.1473C13.0154 8.24264 15.5313 6.07428 19.0897 6.07428C20.2168 6.07428 21.4324 6.24738 22.5596 6.42049V10.4123H20.5643C18.6549 10.4123 18.2215 11.3663 18.2215 12.582V15.6185H22.3865L21.6927 19.9565H18.2215V31.2369C25.5974 29.9276 31.2369 23.4719 31.2369 15.7057C31.2369 7.06735 24.2086 0 15.6185 0C7.02831 0 0 7.06735 0 15.7057Z" fill="white"/>
</g>
<defs>
<clipPath id="clip0_508_15">
<rect width="31.2369" height="31.2369" fill="white"/>
</clipPath>
</defs>
</svg>
