<svg width="42" height="42" viewBox="0 0 42 42" fill="none" xmlns="http://www.w3.org/2000/svg">
<g filter="url(#filter0_d_508_19)">
<path d="M21 0C11.6121 0 4 7.61205 4 17C4 26.3879 11.6121 34 21 34C30.3879 34 38 26.3879 38 17C38 7.61205 30.3879 0 21 0ZM29.1699 12.8145C29.1812 12.9929 29.1812 13.1788 29.1812 13.3609C29.1812 18.9315 24.9388 25.3482 17.1864 25.3482C14.7958 25.3482 12.5797 24.6538 10.7127 23.4585C11.0542 23.4964 11.3806 23.5116 11.7297 23.5116C13.7029 23.5116 15.5167 22.8438 16.9625 21.7129C15.1107 21.675 13.5549 20.4607 13.0237 18.7911C13.6725 18.8859 14.2569 18.8859 14.9248 18.7152C13.9713 18.5215 13.1143 18.0036 12.4993 17.2496C11.8843 16.4956 11.5494 15.552 11.5513 14.579V14.5259C12.1092 14.8408 12.7656 15.0344 13.4525 15.0609C12.8751 14.6761 12.4016 14.1548 12.0739 13.5432C11.7462 12.9316 11.5746 12.2485 11.5741 11.5547C11.5741 10.7692 11.779 10.052 12.1471 9.42969C13.2054 10.7325 14.5261 11.7981 16.0232 12.5571C17.5203 13.3161 19.1604 13.7516 20.8368 13.8353C20.2411 10.9703 22.3813 8.65179 24.954 8.65179C26.1683 8.65179 27.2612 9.16027 28.0315 9.97991C28.9839 9.80156 29.8946 9.44487 30.7067 8.96674C30.3917 9.94196 29.7315 10.7654 28.8549 11.2853C29.7049 11.1942 30.5246 10.9589 31.2835 10.6288C30.7105 11.4712 29.9933 12.2188 29.1699 12.8145Z" fill="white"/>
</g>
<defs>
<filter id="filter0_d_508_19" x="0" y="0" width="44" height="44" filterUnits="userSpaceOnUse" color-interpolation-filters="sRGB">
<feFlood flood-opacity="0" result="BackgroundImageFix"/>
<feColorMatrix in="SourceAlpha" type="matrix" values="0 0 0 0 0 0 0 0 0 0 0 0 0 0 0 0 0 0 127 0" result="hardAlpha"/>
<feOffset dy="4"/>
<feGaussianBlur stdDeviation="2"/>
<feComposite in2="hardAlpha" operator="out"/>
<feColorMatrix type="matrix" values="0 0 0 0 0 0 0 0 0 0 0 0 0 0 0 0 0 0 0.25 0"/>
<feBlend mode="normal" in2="BackgroundImageFix" result="effect1_dropShadow_508_19"/>
<feBlend mode="normal" in="SourceGraphic" in2="effect1_dropShadow_508_19" result="shape"/>
</filter>
</defs>
</svg>
