<svg width="32" height="32" viewBox="0 0 32 32" fill="none" xmlns="http://www.w3.org/2000/svg">
<g clip-path="url(#clip0_508_17)">
<path d="M6.12446 0.00805664C2.75971 0.00805664 0.00585938 2.76184 0.00585938 6.12665V25.1137C0.00585938 28.4785 2.75964 31.2313 6.12446 31.2313H25.1115C28.4763 31.2313 31.2291 28.4785 31.2291 25.1137V6.12665C31.2291 2.7619 28.4763 0.00805664 25.1115 0.00805664H6.12446ZM7.66337 5.16052C9.2767 5.16052 10.2704 6.21964 10.3011 7.61184C10.3011 8.9733 9.27664 10.0622 7.63217 10.0622H7.6019C6.01928 10.0622 4.99637 8.97337 4.99637 7.61184C4.99637 6.21968 6.05024 5.16052 7.66334 5.16052H7.66337ZM21.5663 11.6675C24.669 11.6675 26.995 13.6955 26.995 18.0534V26.1891H22.2797V18.5989C22.2797 16.6916 21.5972 15.3903 19.8908 15.3903C18.5881 15.3903 17.8116 16.2674 17.4707 17.1146C17.3461 17.4178 17.3155 17.8411 17.3155 18.2652V26.1891H12.6002C12.6002 26.1891 12.6621 13.3315 12.6002 12.0002H17.3165V14.0095C17.9431 13.0427 19.0639 11.6675 21.5663 11.6675V11.6675ZM5.2745 12.0013H9.98981V26.1891H5.2745V12.0013Z" fill="white"/>
</g>
<defs>
<clipPath id="clip0_508_17">
<rect width="31.2369" height="31.2369" fill="white"/>
</clipPath>
</defs>
</svg>
